<svg width="40" height="40" viewBox="0 0 40 40" fill="none" xmlns="http://www.w3.org/2000/svg">
<path d="M20 0.000915527C8.95546 0.000915527 0 8.95462 0 20C0 31.0455 8.95458 39.9992 20 39.9992C31.0463 39.9992 40 31.0455 40 20C40 8.95462 31.0463 0.000915527 20 0.000915527ZM20 5.98089C21.7544 5.98077 23.4371 6.67761 24.6777 7.9181C25.9184 9.1586 26.6154 10.8411 26.6156 12.5956C26.6157 14.35 25.9188 16.0326 24.6784 17.2733C23.4379 18.514 21.7553 19.211 20.0009 19.2111C18.2464 19.2113 16.5638 18.5144 15.3231 17.2739C14.0825 16.0334 13.3854 14.3509 13.3853 12.5965C13.3852 10.842 14.082 9.15938 15.3225 7.91872C16.563 6.67806 18.2456 5.981 20 5.98089ZM19.9956 34.7703C16.491 34.7742 13.1006 33.524 10.4375 31.2458C10.1276 30.9813 9.87866 30.6528 9.7079 30.2829C9.53713 29.913 9.44856 29.5105 9.4483 29.1031C9.4483 25.3984 12.4466 22.4335 16.1522 22.4335H23.8496C27.556 22.4335 30.5429 25.3984 30.5429 29.1031C30.5432 29.5104 30.4549 29.9128 30.2843 30.2827C30.1136 30.6525 29.8647 30.9808 29.5546 31.2449C26.8916 33.5241 23.5007 34.7746 19.9956 34.7703Z" fill="#F2A93F"/>
<path d="M20 5.98089C21.7544 5.98077 23.4371 6.67761 24.6777 7.9181C25.9184 9.1586 26.6154 10.8411 26.6156 12.5956C26.6157 14.35 25.9188 16.0326 24.6784 17.2733C23.4379 18.514 21.7553 19.211 20.0009 19.2111C18.2464 19.2113 16.5638 18.5144 15.3231 17.2739C14.0825 16.0334 13.3854 14.3509 13.3853 12.5965C13.3852 10.842 14.082 9.15938 15.3225 7.91872C16.563 6.67806 18.2456 5.981 20 5.98089Z" fill="white"/>
<path d="M19.9956 34.7703C16.491 34.7742 13.1006 33.524 10.4375 31.2458C10.1276 30.9813 9.87866 30.6528 9.7079 30.2829C9.53713 29.913 9.44856 29.5105 9.4483 29.1031C9.4483 25.3984 12.4466 22.4335 16.1522 22.4335H23.8496C27.556 22.4335 30.5429 25.3984 30.5429 29.1031C30.5432 29.5104 30.4549 29.9128 30.2843 30.2827C30.1136 30.6525 29.8647 30.9808 29.5546 31.2449C26.8916 33.5241 23.5007 34.7746 19.9956 34.7703Z" fill="white"/>
</svg>
