<svg width="28" height="20" viewBox="0 0 28 20" fill="none" xmlns="http://www.w3.org/2000/svg">
<path d="M12.3333 15.8333C12.1386 15.8337 11.9499 15.7659 11.8 15.6416C11.6296 15.5004 11.5224 15.2971 11.5021 15.0766C11.4817 14.8562 11.55 14.6367 11.6917 14.4666L15.425 9.99997L11.825 5.52497C11.6852 5.35281 11.6198 5.13202 11.6432 4.91149C11.6667 4.69095 11.7771 4.48887 11.95 4.34997C12.1243 4.19661 12.3547 4.12291 12.5856 4.14664C12.8166 4.17037 13.0272 4.28937 13.1667 4.47497L17.1917 9.47497C17.4444 9.78248 17.4444 10.2258 17.1917 10.5333L13.025 15.5333C12.8555 15.7378 12.5985 15.8493 12.3333 15.8333Z" fill="#171314"/>
</svg>
