<svg width="28" height="20" viewBox="0 0 28 20" fill="none" xmlns="http://www.w3.org/2000/svg">
<path d="M15.6667 15.8333C15.8614 15.8337 16.0501 15.7659 16.2 15.6416C16.3704 15.5004 16.4776 15.2971 16.4979 15.0766C16.5183 14.8562 16.45 14.6367 16.3083 14.4666L12.575 9.99997L16.175 5.52497C16.3148 5.35281 16.3802 5.13202 16.3568 4.91149C16.3333 4.69095 16.2229 4.48887 16.05 4.34997C15.8757 4.19661 15.6453 4.12291 15.4144 4.14664C15.1834 4.17037 14.9728 4.28937 14.8333 4.47497L10.8083 9.47497C10.5556 9.78248 10.5556 10.2258 10.8083 10.5333L14.975 15.5333C15.1445 15.7378 15.4015 15.8493 15.6667 15.8333Z" fill="#000000"/>
</svg>
