<svg width="16" height="15" viewBox="0 0 16 15" fill="none" xmlns="http://www.w3.org/2000/svg">
<path fill-rule="evenodd" clip-rule="evenodd" d="M8.00008 0.166672C3.95008 0.166672 0.666748 3.45001 0.666748 7.50001C0.666748 11.55 3.95008 14.8333 8.00008 14.8333C12.0501 14.8333 15.3334 11.55 15.3334 7.50001C15.3334 3.45001 12.0501 0.166672 8.00008 0.166672ZM7.66675 3.50001C7.48994 3.50001 7.32037 3.57024 7.19534 3.69527C7.07032 3.82029 7.00008 3.98986 7.00008 4.16667C7.00008 4.34348 7.07032 4.51305 7.19534 4.63808C7.32037 4.7631 7.48994 4.83334 7.66675 4.83334H8.00008C8.17689 4.83334 8.34646 4.7631 8.47149 4.63808C8.59651 4.51305 8.66675 4.34348 8.66675 4.16667C8.66675 3.98986 8.59651 3.82029 8.47149 3.69527C8.34646 3.57024 8.17689 3.50001 8.00008 3.50001H7.66675ZM6.66675 6.16667C6.48994 6.16667 6.32037 6.23691 6.19534 6.36193C6.07032 6.48696 6.00008 6.65653 6.00008 6.83334C6.00008 7.01015 6.07032 7.17972 6.19534 7.30474C6.32037 7.42977 6.48994 7.50001 6.66675 7.50001H7.33342V9.50001H6.66675C6.48994 9.50001 6.32037 9.57024 6.19534 9.69527C6.07032 9.82029 6.00008 9.98986 6.00008 10.1667C6.00008 10.3435 6.07032 10.5131 6.19534 10.6381C6.32037 10.7631 6.48994 10.8333 6.66675 10.8333H9.33342C9.51023 10.8333 9.67979 10.7631 9.80482 10.6381C9.92984 10.5131 10.0001 10.3435 10.0001 10.1667C10.0001 9.98986 9.92984 9.82029 9.80482 9.69527C9.67979 9.57024 9.51023 9.50001 9.33342 9.50001H8.66675V6.83334C8.66675 6.65653 8.59651 6.48696 8.47149 6.36193C8.34646 6.23691 8.17689 6.16667 8.00008 6.16667H6.66675Z" fill="#BDC6CF"/>
</svg>
