<svg width="24" height="24" viewBox="0 0 24 24" fill="none" xmlns="http://www.w3.org/2000/svg">
<path opacity="0.5" d="M2 12.204C2 9.915 2 8.771 2.52 7.823C3.038 6.874 3.987 6.286 5.884 5.108L7.884 3.867C9.889 2.622 10.892 2 12 2C13.108 2 14.11 2.622 16.116 3.867L18.116 5.108C20.013 6.286 20.962 6.874 21.481 7.823C22 8.771 22 9.915 22 12.203V13.725C22 17.625 22 19.576 20.828 20.788C19.657 22 17.771 22 14 22H10C6.229 22 4.343 22 3.172 20.788C2 19.576 2 17.626 2 13.725V12.204Z" fill="#5E5E5E"/>
<path d="M9.447 15.398C9.28721 15.2795 9.08686 15.2292 8.89004 15.2584C8.69323 15.2876 8.51605 15.3937 8.3975 15.5535C8.27895 15.7133 8.22873 15.9136 8.25789 16.1105C8.28705 16.3073 8.39321 16.4845 8.553 16.603C9.5484 17.3468 10.7574 17.7491 12 17.75C13.2426 17.7491 14.4516 17.3468 15.447 16.603C15.6069 16.4845 15.7132 16.3072 15.7425 16.1103C15.7717 15.9134 15.7216 15.7129 15.603 15.553C15.4844 15.3931 15.3072 15.2868 15.1103 15.2575C14.9134 15.2283 14.7129 15.2785 14.553 15.397C13.8164 15.9494 12.9208 16.2486 12 16.25C11.0794 16.2489 10.1838 15.95 9.447 15.398Z" fill="#5E5E5E"/>
</svg>
