<svg width="24" height="24" viewBox="0 0 24 24" fill="none" xmlns="http://www.w3.org/2000/svg">
<path opacity="0.5" d="M4.727 2.733C5.033 2.425 5.461 2.225 6.271 2.115C7.105 2.002 8.209 2 9.793 2H14.207C15.791 2 16.895 2.002 17.729 2.115C18.539 2.225 18.967 2.425 19.273 2.733C19.578 3.041 19.777 3.473 19.886 4.29C19.998 5.13 20 6.245 20 7.842V18H7.426C6.342 18 5.964 18.006 5.673 18.068C5.16 18.178 4.713 18.415 4.388 18.735C4.278 18.843 4.224 18.896 4.097 19.24C4.03639 19.386 4.00349 19.542 4 19.7V7.842C4 6.245 4.002 5.131 4.114 4.29C4.223 3.474 4.422 3.041 4.727 2.733Z" fill="#5E5E5E"/>
<path d="M20 18H7.42601C6.34201 18 5.96401 18.006 5.67301 18.068C5.16001 18.178 4.71301 18.415 4.38801 18.735C4.27801 18.843 4.22401 18.896 4.09701 19.24C3.97001 19.583 3.99001 19.729 4.03101 20.02L4.05301 20.17C4.16301 20.823 4.36301 21.168 4.66901 21.414C4.97601 21.66 5.40601 21.821 6.21901 21.908C7.05601 21.998 8.16501 22 9.75501 22H14.185C15.775 22 16.885 21.999 17.721 21.908C18.534 21.821 18.964 21.66 19.271 21.414C19.471 21.254 19.625 21.052 19.738 20.75H8.00001C7.8011 20.75 7.61033 20.671 7.46968 20.5303C7.32903 20.3897 7.25001 20.1989 7.25001 20C7.25001 19.8011 7.32903 19.6103 7.46968 19.4697C7.61033 19.329 7.8011 19.25 8.00001 19.25H19.975C19.993 18.887 19.998 18.474 20 18ZM7.25001 7C7.25001 6.80109 7.32903 6.61032 7.46968 6.46967C7.61033 6.32902 7.8011 6.25 8.00001 6.25H16C16.1989 6.25 16.3897 6.32902 16.5303 6.46967C16.671 6.61032 16.75 6.80109 16.75 7C16.75 7.19891 16.671 7.38968 16.5303 7.53033C16.3897 7.67098 16.1989 7.75 16 7.75H8.00001C7.8011 7.75 7.61033 7.67098 7.46968 7.53033C7.32903 7.38968 7.25001 7.19891 7.25001 7ZM8.00001 9.75C7.8011 9.75 7.61033 9.82902 7.46968 9.96967C7.32903 10.1103 7.25001 10.3011 7.25001 10.5C7.25001 10.6989 7.32903 10.8897 7.46968 11.0303C7.61033 11.171 7.8011 11.25 8.00001 11.25H13C13.1989 11.25 13.3897 11.171 13.5303 11.0303C13.671 10.8897 13.75 10.6989 13.75 10.5C13.75 10.3011 13.671 10.1103 13.5303 9.96967C13.3897 9.82902 13.1989 9.75 13 9.75H8.00001Z" fill="#5E5E5E"/>
</svg>
