<svg width="24" height="24" viewBox="0 0 24 24" fill="none" xmlns="http://www.w3.org/2000/svg">
<path opacity="0.5" d="M2 12C2 7.28636 2 4.92909 3.46364 3.46364C4.93 2 7.28727 2 12 2C16.7136 2 19.0709 2 20.5364 3.46364C22 4.93 22 7.28727 22 12C22 16.7136 22 19.0709 20.5364 20.5364C19.07 22 16.7127 22 12 22C7.28636 22 4.92909 22 3.46364 20.5364C2 19.07 2 16.7127 2 12Z" fill="#5E5E5E"/>
<path d="M13.7509 14.0928C13.9736 13.9191 14.1754 13.7173 14.58 13.3128L19.6164 8.27641C19.7382 8.15459 19.6827 7.94459 19.52 7.88823C18.7323 7.61297 18.0174 7.16257 17.4291 6.57096C16.8371 5.98271 16.3864 5.26778 16.1109 4.48005C16.0554 4.31641 15.8454 4.26187 15.7236 4.38369L10.6873 9.42005C10.2827 9.82369 10.0809 10.0264 9.90726 10.2491C9.70216 10.5117 9.52627 10.7958 9.38272 11.0964C9.26181 11.351 9.1709 11.6228 8.9909 12.1646L8.75726 12.8646L8.38544 13.9791L8.03817 15.0228C7.9948 15.1535 7.98861 15.2937 8.02031 15.4277C8.052 15.5617 8.12033 15.6842 8.21765 15.7817C8.31498 15.8791 8.43747 15.9475 8.57145 15.9793C8.70543 16.0112 8.84561 16.0051 8.97635 15.9619L10.0218 15.6137L11.1345 15.2428L11.8345 15.0091C12.3773 14.8282 12.6482 14.7382 12.9027 14.6164C13.2037 14.4733 13.4881 14.2977 13.7509 14.0928ZM21.1936 6.70005C21.71 6.18384 22.0001 5.48367 22.0002 4.75355C22.0002 4.02344 21.7103 3.3232 21.1941 2.80687C20.6779 2.29054 19.9777 2.00042 19.2476 2.00034C18.5175 2.00025 17.8172 2.29021 17.3009 2.80641L17.1382 2.96823C17.0613 3.04432 17.0042 3.13794 16.9715 3.24104C16.9389 3.34413 16.9318 3.45361 16.9509 3.56005C16.9754 3.69641 17.0209 3.89641 17.1036 4.1355C17.3266 4.77356 17.6915 5.35266 18.1709 5.82914C18.6471 6.30842 19.2259 6.67335 19.8636 6.89641C20.1027 6.97823 20.3027 7.02459 20.4391 7.04914C20.6573 7.08823 20.8754 7.01732 21.0318 6.86096L21.1936 6.70005Z" fill="#5E5E5E"/>
</svg>
