<svg width="18" height="21" viewBox="0 0 18 21" fill="none" xmlns="http://www.w3.org/2000/svg">
<path fill-rule="evenodd" clip-rule="evenodd" d="M15.7196 11.9L17.5196 13.71C17.9819 14.1799 18.1178 14.881 17.8648 15.4896C17.6117 16.0983 17.0188 16.4963 16.3596 16.5H12.9996V16.84C12.9024 18.9537 11.1136 20.5904 8.99963 20.5C6.88565 20.5904 5.09688 18.9537 4.99963 16.84V16.5H1.63963C0.980463 16.4963 0.387571 16.0983 0.134507 15.4896C-0.118558 14.881 0.0173911 14.1799 0.479629 13.71L2.27963 11.9V7.22999C2.28317 5.29116 3.12147 3.44776 4.58035 2.17076C6.03924 0.893754 7.97739 0.30685 9.89963 0.559995C13.2851 1.07888 15.7691 4.01534 15.7196 7.43999V11.9ZM8.99963 18.5C10.003 18.5708 10.8844 17.8393 10.9996 16.84V16.5H6.99963V16.84C7.11484 17.8393 7.99622 18.5708 8.99963 18.5Z" fill="#7E7E7E"/>
</svg>
