<svg width="16" height="17" viewBox="0 0 16 17" fill="none" xmlns="http://www.w3.org/2000/svg">
<path d="M13.8694 1.38133C13.8695 1.18243 13.8103 0.988005 13.6994 0.822923C13.5884 0.65784 13.4307 0.529599 13.2465 0.454592C13.0623 0.379586 12.8599 0.361223 12.6652 0.40185C12.4704 0.442478 12.2923 0.540251 12.1534 0.682668L11.1534 1.70667C9.73209 1.0536 8.14311 0.857806 6.60578 1.14631C5.06845 1.43481 3.65857 2.19339 2.57074 3.31733C-0.411926 6.37067 -0.411926 11.312 2.57074 14.3667C3.27546 15.0942 4.11923 15.6727 5.05191 16.0678C5.98459 16.4629 6.98717 16.6665 8.00007 16.6665C9.01298 16.6665 10.0156 16.4629 10.9482 16.0678C11.8809 15.6727 12.7247 15.0942 13.4294 14.3667C14.2566 13.5161 14.8819 12.4904 15.259 11.3655C15.6361 10.2406 15.7554 9.04526 15.6081 7.868C15.5921 7.73756 15.5507 7.61152 15.486 7.49711C15.4214 7.38269 15.3348 7.28212 15.2313 7.20115C15.1278 7.12017 15.0094 7.06038 14.8828 7.02518C14.7562 6.98998 14.6239 6.98007 14.4934 6.996C14.363 7.01194 14.2369 7.05341 14.1225 7.11805C14.0081 7.18269 13.9075 7.26923 13.8265 7.37274C13.7456 7.47624 13.6858 7.59469 13.6506 7.7213C13.6154 7.84791 13.6055 7.98022 13.6214 8.11067C13.8347 9.844 13.2881 11.648 11.9987 12.968C11.4803 13.5049 10.8591 13.9319 10.1721 14.2235C9.48509 14.5151 8.7464 14.6654 8.00007 14.6654C7.25375 14.6654 6.51506 14.5151 5.82806 14.2235C5.14107 13.9319 4.51984 13.5049 4.00141 12.968C1.77741 10.692 1.77741 6.99067 4.00141 4.71467C4.71462 3.9763 5.61833 3.4498 6.61241 3.19352C7.60648 2.93723 8.6521 2.96117 9.63341 3.26267L8.61874 4.30267C8.48176 4.44346 8.38928 4.62148 8.35284 4.81451C8.3164 5.00754 8.33762 5.20702 8.41385 5.38806C8.49008 5.5691 8.61794 5.72368 8.78147 5.83251C8.94501 5.94134 9.13697 5.99959 9.33341 6H12.8694C13.1346 6 13.389 5.89464 13.5765 5.70711C13.764 5.51957 13.8694 5.26522 13.8694 5V1.38133Z" fill="#F2A93F"/>
</svg>
