<svg width="12" height="14" viewBox="0 0 12 14" fill="none" xmlns="http://www.w3.org/2000/svg">
<path d="M11.3334 9.728V6.39867C11.3334 3.53867 11.3334 2.10934 10.5521 1.22134C9.77075 0.333336 8.51475 0.333336 6.00008 0.333336C3.48541 0.333336 2.22942 0.333336 1.44808 1.22134C0.666749 2.10934 0.666748 3.53867 0.666748 6.4V9.72933C0.666748 11.7933 0.666748 12.8253 1.10142 13.276C1.2997 13.4867 1.56414 13.6231 1.85075 13.6627C2.43475 13.7373 3.11741 13.0587 4.48408 11.6987C5.08808 11.0987 5.39075 10.7973 5.74008 10.7187C5.91125 10.6799 6.08891 10.6799 6.26008 10.7187C6.60941 10.7973 6.91208 11.0973 7.51608 11.6987C8.88142 13.0587 9.56541 13.7387 10.1507 13.6627C10.4364 13.6226 10.6998 13.4862 10.8974 13.276C11.3334 12.8253 11.3334 11.7933 11.3334 9.72933" fill="#F2A93F"/>
</svg>
