<svg width="20" height="20" viewBox="0 0 20 20" fill="none" xmlns="http://www.w3.org/2000/svg">
<path d="M10.0008 0.834167C15.0631 0.834167 19.1667 4.93771 19.1667 10C19.1667 15.0623 15.0631 19.1658 10.0008 19.1658C8.38101 19.1685 6.78971 18.7398 5.3904 17.9239L0.83864 19.1658L2.07786 14.6123C1.26127 13.2125 0.832268 11.6205 0.834974 10C0.834974 4.93771 4.93852 0.834167 10.0008 0.834167ZM6.8771 5.69206L6.69378 5.6994C6.5751 5.70662 6.45912 5.7378 6.35281 5.79105C6.25338 5.84736 6.16262 5.91775 6.08333 6.00004C5.97334 6.10361 5.91102 6.19343 5.84411 6.28051C5.50508 6.7213 5.32254 7.26246 5.32532 7.81854C5.32715 8.26766 5.44448 8.70487 5.62779 9.11367C6.00267 9.94043 6.61954 10.8158 7.43346 11.6269C7.62961 11.8222 7.82209 12.0183 8.02924 12.2007C9.04059 13.0912 10.2458 13.7333 11.5489 14.0761L12.0695 14.1558C12.2391 14.165 12.4087 14.1521 12.5792 14.1439C12.8461 14.1301 13.1068 14.0578 13.3427 13.9322C13.4627 13.8703 13.5799 13.803 13.6937 13.7305C13.6937 13.7305 13.7331 13.7048 13.8083 13.648C13.932 13.5564 14.0081 13.4913 14.1108 13.384C14.1869 13.3052 14.2528 13.2126 14.3033 13.1072C14.3748 12.9578 14.4462 12.6728 14.4756 12.4354C14.4976 12.2539 14.4912 12.1549 14.4884 12.0935C14.4847 11.9954 14.4032 11.8937 14.3143 11.8506L13.7808 11.6114C13.7808 11.6114 12.9834 11.264 12.4958 11.0422C12.4447 11.0199 12.3901 11.0071 12.3344 11.0046C12.2717 10.9981 12.2084 11.0052 12.1486 11.0253C12.0888 11.0454 12.0341 11.078 11.988 11.121C11.9834 11.1192 11.922 11.1714 11.2593 11.9743C11.2212 12.0254 11.1689 12.0641 11.1088 12.0853C11.0487 12.1065 10.9837 12.1094 10.922 12.0935C10.8623 12.0775 10.8038 12.0573 10.7469 12.033C10.6333 11.9853 10.5938 11.967 10.5159 11.934C9.98988 11.7044 9.50282 11.3943 9.07231 11.0147C8.95683 10.9138 8.84958 10.8039 8.73959 10.6975C8.379 10.3522 8.06474 9.96152 7.80468 9.5353L7.7506 9.44822C7.71176 9.38971 7.68035 9.3266 7.65711 9.26032C7.62228 9.12559 7.71302 9.01743 7.71302 9.01743C7.71302 9.01743 7.93575 8.77362 8.03932 8.64163C8.14015 8.51331 8.22539 8.38865 8.28039 8.29975C8.38854 8.12559 8.42246 7.94686 8.36563 7.80846C8.10898 7.18151 7.84318 6.55732 7.57003 5.93771C7.51595 5.81489 7.35555 5.72689 7.20982 5.70948C7.16032 5.70398 7.11082 5.69848 7.06133 5.69481C6.93824 5.6887 6.81489 5.68992 6.69195 5.69848L6.87618 5.69115L6.8771 5.69206Z" fill="#36B37E"/>
</svg>
